<svg width="50" height="81" viewBox="0 0 50 81" fill="none" xmlns="http://www.w3.org/2000/svg">
<path d="M43.145 3.83179H36.9436V2.6733C36.9434 1.15849 35.7916 0 34.2857 0C32.7795 0 31.6279 1.15849 31.6279 2.6733V10.1588C31.6279 11.6738 32.7797 12.8321 34.2857 12.8321C35.7918 12.8321 36.9434 11.6736 36.9434 10.1588V9.17855H40.4871V21.1196C40.4871 30.1199 33.2224 37.4272 24.2746 37.4272H23.0343C14.0864 37.4272 6.82176 30.1199 6.82176 21.1196V9.17855H10.6312V10.1588C10.6312 11.6738 11.783 12.8321 13.2889 12.8321C14.7949 12.8321 15.9467 11.6736 15.9467 10.1588V2.6733C15.9468 1.15849 14.7951 0 13.2889 0C11.7828 0 10.6312 1.15849 10.6312 2.6733V3.83179H4.16387C2.65772 3.83179 1.50615 4.99028 1.50615 6.50509V21.1196C1.50615 32.4369 10.1883 41.7047 21.1739 42.6849V55.1607H12.5803C5.67002 55.1607 0 60.8639 0 67.8147C0 74.7655 5.67002 80.4688 12.6688 80.4688H13.9091C20.8193 80.4688 26.4894 74.7655 26.4894 67.8147V60.5075H35.5259V55.1607H26.4894V42.6849C37.2978 41.5264 45.8027 32.3479 45.8027 21.1196V6.50526C45.8027 4.99028 44.651 3.83179 43.145 3.83179ZM21.1738 67.8147C21.1738 71.8248 17.8957 75.122 13.9091 75.122H12.6688C8.50494 75.122 5.31561 71.914 5.31561 67.8147C5.31561 63.8047 8.59363 60.5075 12.5803 60.5075H21.1739V67.8147H21.1738Z" fill="#FF2D00"/>
<path d="M41.2844 66.2107C36.6776 66.2107 32.9567 62.4679 32.9567 57.8341C32.9567 53.2003 36.6776 49.4576 41.2844 49.4576C45.8912 49.4576 49.6122 53.2003 49.6122 57.8341C49.6122 62.4679 45.8914 66.2107 41.2844 66.2107ZM41.2844 54.8042C39.6011 54.8042 38.2723 56.1409 38.2723 57.834C38.2723 59.527 39.6012 60.8638 41.2844 60.8638C42.9678 60.8638 44.2966 59.527 44.2966 57.834C44.2966 56.1409 42.9678 54.8042 41.2844 54.8042Z" fill="#FF6B00"/>
</svg>
