<svg width="61" height="81" viewBox="0 0 61 81" fill="none" xmlns="http://www.w3.org/2000/svg">
<path d="M56.1613 11.0932H46.0659V7.6799C46.0659 6.22918 44.963 5.11999 43.5209 5.11999H38.1763C36.7339 2.04803 33.595 0 30.1167 0C26.6385 0 23.5842 2.04803 22.0572 5.11999H16.7974C15.3551 5.11999 14.2524 6.22934 14.2524 7.6799V11.0932H4.24172C1.86625 11.0932 0 12.9706 0 15.3598V76.2022C0 78.5916 1.86641 80.4688 4.24172 80.4688H56.1613C58.5368 80.4688 60.403 78.5914 60.403 76.2022V15.36C60.4032 12.9706 58.5368 11.0932 56.1613 11.0932ZM19.3425 10.24H23.8388C25.0265 10.24 26.0446 9.38673 26.2991 8.27737C26.6385 6.74139 27.9958 5.11999 30.1167 5.11999C31.9831 5.11999 33.5101 6.40002 33.9342 8.19195C34.1887 9.38656 35.2068 10.24 36.3945 10.24H40.9756V16.64H19.3425V10.24ZM55.313 75.3489H5.09016V16.2132H14.2524V19.1999C14.2524 20.6506 15.3552 21.7598 16.7974 21.7598H43.5206C44.9628 21.7598 46.0656 20.6505 46.0656 19.1999V16.2132H55.3127V75.3489H55.313Z" fill="#FF2D00"/>
<path d="M26.9779 35.7545H16.4582C15.0159 35.7545 13.9132 34.6451 13.9132 33.1945C13.9132 31.744 15.0161 30.6346 16.4582 30.6346H26.9779C28.4202 30.6346 29.5229 31.744 29.5229 33.1945C29.5229 34.6451 28.42 35.7545 26.9779 35.7545Z" fill="#FF6B00"/>
<path d="M43.9449 45.9944H16.4582C15.0159 45.9944 13.9131 44.8851 13.9131 43.4345C13.9131 41.9838 15.016 40.8746 16.4582 40.8746H43.9449C45.3872 40.8746 46.4899 41.9839 46.4899 43.4345C46.4901 44.8851 45.3872 45.9944 43.9449 45.9944Z" fill="#FF6B00"/>
<path d="M43.9449 56.2344H16.4582C15.0159 56.2344 13.9131 55.1251 13.9131 53.6745C13.9131 52.2239 15.016 51.1146 16.4582 51.1146H43.9449C45.3872 51.1146 46.4899 52.2239 46.4899 53.6745C46.4901 55.1251 45.3872 56.2344 43.9449 56.2344Z" fill="#FF6B00"/>
<path d="M43.9449 66.4744H16.4582C15.0159 66.4744 13.9131 65.365 13.9131 63.9145C13.9131 62.4639 15.016 61.3546 16.4582 61.3546H43.9449C45.3872 61.3546 46.4899 62.4639 46.4899 63.9145C46.4899 65.365 45.3872 66.4744 43.9449 66.4744Z" fill="#FF6B00"/>
</svg>
