<svg width="43" height="81" fill="none" xmlns="http://www.w3.org/2000/svg"><path d="M32.236 28.293h-6.9c-1.544 0-2.724-1.194-2.724-2.756 0-1.561 1.18-2.756 2.724-2.756h6.9c1.543 0 2.723 1.195 2.723 2.756 0 1.562-1.18 2.756-2.723 2.756zm1.089 14.697h-7.99c-1.543 0-2.723-1.194-2.723-2.756 0-1.561 1.18-2.755 2.724-2.755h7.99c1.543 0 2.723 1.194 2.723 2.755 0 1.562-1.18 2.756-2.724 2.756zm0 14.79h-7.99c-1.543 0-2.723-1.195-2.723-2.756 0-1.562 1.18-2.756 2.724-2.756h7.99c1.543 0 2.723 1.194 2.723 2.756 0 1.561-1.18 2.755-2.724 2.755z" fill="#FF6B00"/><path d="M21.16 80.469c-8.172 0-14.89-6.798-14.89-15.065v-53.83L.64 4.501c-.726-.827-.816-1.929-.363-2.94C.731.644 1.73 0 2.73 0H39.5c1.09 0 2.088.643 2.542 1.653.636 1.562-.09 2.389-1.362 4.042-.545.735-1.362 1.746-2.088 2.664-1.271 1.562-2.088 2.572-2.542 3.123v53.83c0 8.36-6.719 15.157-14.89 15.157zM8.448 5.512l2.633 3.306c.363.46.635 1.103.635 1.746v54.84c0 5.236 4.267 9.553 9.442 9.553s9.443-4.317 9.443-9.553v-54.84c0-.643.272-1.286.635-1.837.272-.276 1.362-1.746 2.633-3.215H8.449z" fill="#FF2D00"/></svg>