<svg width="61" height="81" fill="none" xmlns="http://www.w3.org/2000/svg"><path d="M56.161 11.093H46.066V7.68c0-1.45-1.103-2.56-2.545-2.56h-5.345A8.938 8.938 0 0030.116 0c-3.477 0-6.532 2.048-8.059 5.12h-5.26c-1.442 0-2.545 1.11-2.545 2.56v3.413H4.242C1.866 11.093 0 12.971 0 15.36v60.842c0 2.39 1.866 4.267 4.242 4.267h51.92c2.375 0 4.241-1.878 4.241-4.267V15.36c0-2.39-1.866-4.267-4.242-4.267zm-36.819-.853h4.497a2.55 2.55 0 002.46-1.963c.34-1.536 1.697-3.157 3.818-3.157 1.866 0 3.393 1.28 3.817 3.072.255 1.195 1.273 2.048 2.46 2.048h4.582v6.4H19.343v-6.4zm35.971 65.109H5.09V16.213h9.162V19.2c0 1.45 1.103 2.56 2.545 2.56h26.724c1.442 0 2.545-1.11 2.545-2.56v-2.987h9.247V75.35z" fill="#FF2D00"/><path d="M26.978 35.755h-10.52c-1.442 0-2.545-1.11-2.545-2.56 0-1.451 1.103-2.56 2.545-2.56h10.52c1.442 0 2.545 1.109 2.545 2.56 0 1.45-1.103 2.56-2.545 2.56zm16.967 10.239H16.458c-1.442 0-2.545-1.109-2.545-2.56 0-1.45 1.103-2.56 2.545-2.56h27.487c1.442 0 2.545 1.11 2.545 2.56 0 1.451-1.103 2.56-2.545 2.56zm0 10.24H16.458c-1.442 0-2.545-1.109-2.545-2.56 0-1.45 1.103-2.56 2.545-2.56h27.487c1.442 0 2.545 1.11 2.545 2.56 0 1.451-1.103 2.56-2.545 2.56zm0 10.24H16.458c-1.442 0-2.545-1.109-2.545-2.56 0-1.45 1.103-2.56 2.545-2.56h27.487c1.442 0 2.545 1.11 2.545 2.56 0 1.451-1.103 2.56-2.545 2.56z" fill="#FF6B00"/></svg>