<svg width="43" height="81" viewBox="0 0 43 81" fill="none" xmlns="http://www.w3.org/2000/svg">
<path d="M32.2357 28.2927H25.3356C23.7921 28.2927 22.612 27.0985 22.612 25.537C22.612 23.9755 23.7923 22.7813 25.3356 22.7813H32.2357C33.7792 22.7813 34.9593 23.9755 34.9593 25.537C34.9593 27.0985 33.7792 28.2927 32.2357 28.2927Z" fill="#FF6B00"/>
<path d="M33.3253 42.9902H25.3356C23.7921 42.9902 22.612 41.796 22.612 40.2345C22.612 38.6728 23.7923 37.4788 25.3356 37.4788H33.3251C34.8686 37.4788 36.0487 38.673 36.0487 40.2345C36.0489 41.796 34.8686 42.9902 33.3253 42.9902Z" fill="#FF6B00"/>
<path d="M33.3253 57.7794H25.3356C23.7921 57.7794 22.612 56.5852 22.612 55.0237C22.612 53.4622 23.7923 52.2679 25.3356 52.2679H33.3251C34.8686 52.2679 36.0487 53.4622 36.0487 55.0237C36.0487 56.5852 34.8686 57.7794 33.3253 57.7794Z" fill="#FF6B00"/>
<path d="M21.1592 80.4688C12.9881 80.4688 6.26951 73.6712 6.26951 65.4037V11.5744L0.640659 4.50111C-0.0857343 3.67438 -0.176447 2.57214 0.277461 1.56167C0.73137 0.64299 1.73007 0 2.72878 0H39.4989C40.5883 0 41.587 0.64299 42.0411 1.65345C42.6766 3.21513 41.9503 4.04185 40.6792 5.69531C40.1344 6.43026 39.3173 7.44072 38.591 8.35923C37.32 9.9209 36.5029 10.9314 36.0488 11.4824V65.312C36.0488 73.6712 29.3304 80.4688 21.1592 80.4688ZM8.44869 5.51157L11.0816 8.81848C11.4448 9.27773 11.7171 9.92073 11.7171 10.5639V65.4039C11.7171 70.64 15.9842 74.9574 21.1593 74.9574C26.3345 74.9574 30.6016 70.64 30.6016 65.4039V10.5639C30.6016 9.9209 30.8739 9.27791 31.2371 8.7267C31.5094 8.45118 32.599 6.98129 33.87 5.51157C33.8698 5.51157 8.44869 5.51157 8.44869 5.51157Z" fill="#FF2D00"/>
</svg>
