<svg width="50" height="81" fill="none" xmlns="http://www.w3.org/2000/svg"><path d="M43.145 3.832h-6.201V2.673C36.944 1.158 35.792 0 34.286 0c-1.507 0-2.658 1.158-2.658 2.673v7.486c0 1.515 1.152 2.673 2.658 2.673s2.657-1.158 2.657-2.673v-.98h3.544v11.94c0 9-7.265 16.308-16.212 16.308h-1.24c-8.949 0-16.213-7.307-16.213-16.307V9.179h3.81v.98c0 1.515 1.151 2.673 2.657 2.673s2.658-1.158 2.658-2.673V2.673C15.947 1.158 14.795 0 13.289 0S10.63 1.158 10.63 2.673v1.159H4.164c-1.506 0-2.658 1.158-2.658 2.673V21.12c0 11.317 8.682 20.585 19.668 21.565V55.16H12.58C5.67 55.16 0 60.864 0 67.815c0 6.95 5.67 12.654 12.669 12.654h1.24c6.91 0 12.58-5.703 12.58-12.654v-7.307h9.037V55.16h-9.037V42.685c10.809-1.159 19.314-10.337 19.314-21.565V6.505c0-1.515-1.152-2.673-2.658-2.673zM21.174 67.815c0 4.01-3.278 7.307-7.265 7.307h-1.24c-4.164 0-7.353-3.208-7.353-7.307 0-4.01 3.278-7.307 7.264-7.307h8.594v7.307z" fill="#FF2D00"/><path d="M41.284 66.21c-4.606 0-8.327-3.742-8.327-8.376 0-4.634 3.72-8.376 8.327-8.376 4.607 0 8.328 3.742 8.328 8.376 0 4.634-3.72 8.377-8.328 8.377zm0-11.406c-1.683 0-3.012 1.337-3.012 3.03 0 1.693 1.33 3.03 3.012 3.03 1.684 0 3.013-1.337 3.013-3.03 0-1.693-1.33-3.03-3.013-3.03z" fill="#FF6B00"/></svg>